<svg width="280" height="180" viewBox="0 0 280 180" fill="none" xmlns="http://www.w3.org/2000/svg">
  <ellipse cx="140" cy="162" rx="78" ry="12" fill="#84A7FF" opacity="0.16"/>
  <ellipse cx="116" cy="88" rx="64" ry="48" fill="#FFD98C" opacity="0.28"/>
  <ellipse cx="116" cy="88" rx="48" ry="34" fill="#FFE8B8" opacity="0.36"/>
  <rect x="102" y="147" width="76" height="10" rx="5" fill="#B9C4DD"/>
  <rect x="116" y="136" width="48" height="14" rx="7" fill="#CCD5E9"/>
  <rect x="133" y="86" width="10" height="54" rx="5" fill="#D7DFF1"/>
  <circle cx="138" cy="84" r="8" fill="#E1E8F6"/>
  <path d="M138 83L101 54" stroke="#DCE4F6" stroke-width="9" stroke-linecap="round"/>
  <circle cx="99" cy="53" r="8" fill="#E5ECFA"/>
  <path d="M72 49C72 33.536 84.536 21 100 21H133C148.464 21 161 33.536 161 49V52H72V49Z" fill="#E8C374"/>
  <path d="M78 52H155C150 68 135 80 116 80C98 80 84 68 78 52Z" fill="#FFE3A6"/>
  <rect x="112" y="21" width="10" height="18" rx="5" fill="#D5A85B"/>
  <circle cx="191" cy="46" r="5" fill="#E7EDF8"/>
  <circle cx="208" cy="60" r="3.5" fill="#D8E4FF" opacity="0.9"/>
  <circle cx="198" cy="79" r="2.5" fill="#D8E4FF" opacity="0.7"/>
</svg>